<?xml version="1.0" encoding="UTF-8" standalone="no"?>
<!-- Created with Inkscape (http://www.inkscape.org/) -->

<svg
   width="200"
   height="200"
   id="svg3201"
   version="1.1"
   inkscape:version="1.1.1 (eb90963e84, 2021-10-02)"
   inkscape:export-filename="E:\Karriere\sciencebear.info\eurobear-300dpi-black.png"
   inkscape:export-xdpi="300.228"
   inkscape:export-ydpi="300.228"
   sodipodi:docname="eurobear.svg"
   viewBox="0 0 100 100"
   xmlns:inkscape="http://www.inkscape.org/namespaces/inkscape"
   xmlns:sodipodi="http://sodipodi.sourceforge.net/DTD/sodipodi-0.dtd"
   xmlns:xlink="http://www.w3.org/1999/xlink"
   xmlns="http://www.w3.org/2000/svg"
   xmlns:svg="http://www.w3.org/2000/svg"
   xmlns:rdf="http://www.w3.org/1999/02/22-rdf-syntax-ns#"
   xmlns:cc="http://creativecommons.org/ns#"
   xmlns:dc="http://purl.org/dc/elements/1.1/">
  <defs
     id="defs3203">
    <linearGradient
       id="linearGradient956"
       inkscape:collect="always">
      <stop
         id="stop952"
         offset="0"
         style="stop-color:#285393;stop-opacity:1" />
      <stop
         id="stop954"
         offset="1"
         style="stop-color:#101091;stop-opacity:1" />
    </linearGradient>
    <linearGradient
       gradientTransform="matrix(1.3226052,0,0,1.3226052,-41.771326,-1201.8526)"
       inkscape:collect="always"
       xlink:href="#linearGradient956"
       id="linearGradient950-9"
       x1="58.229347"
       y1="932.89362"
       x2="48.305031"
       y2="913.69574"
       gradientUnits="userSpaceOnUse" />
  </defs>
  <sodipodi:namedview
     id="base"
     pagecolor="#ffffff"
     bordercolor="#666666"
     borderopacity="1.0"
     inkscape:pageopacity="0.0"
     inkscape:pageshadow="2"
     inkscape:zoom="4.614695"
     inkscape:cx="56.341752"
     inkscape:cy="22.861749"
     inkscape:document-units="cm"
     inkscape:current-layer="layer1-8"
     showgrid="false"
     inkscape:snap-page="true"
     inkscape:snap-bbox="true"
     inkscape:window-width="1848"
     inkscape:window-height="1009"
     inkscape:window-x="72"
     inkscape:window-y="34"
     inkscape:window-maximized="1"
     scale-x="1"
     units="px"
     inkscape:snap-global="false"
     inkscape:pagecheckerboard="1"
     width="200px"
     viewbox-height="200" />
  <metadata
     id="metadata3206">
    <rdf:RDF>
      <cc:Work
         rdf:about="">
        <dc:format>image/svg+xml</dc:format>
        <dc:type
           rdf:resource="http://purl.org/dc/dcmitype/StillImage" />
      </cc:Work>
    </rdf:RDF>
  </metadata>
  <g
     inkscape:label="Ebene 1"
     inkscape:groupmode="layer"
     id="layer1"
     transform="translate(0,-870.05246)">
    <g
       inkscape:label="Ebene 1"
       id="layer1-8"
       transform="matrix(0.03499393,0,0,0.03499393,0.37628183,838.33899)">
      <path
         id="path931"
         style="fill:#ffffff;fill-opacity:1;fill-rule:evenodd;stroke:none;stroke-width:15.1001px;stroke-linecap:butt;stroke-linejoin:miter;stroke-opacity:1"
         d="m 1267.8601,948.46432 c 7.4477,28.24268 1.5996,42.0707 45.9458,86.71268 51.27,35.9947 49.0721,75.2555 39.8529,111.2502 -24.6353,-7.0252 11.6325,77.328 -40.1299,107.7607 -46.0286,-58.8106 -238.0422,-136.1336 -361.39029,-117.897 l -74.85921,20.6603 c 82.7757,11.2643 165.5241,69.814 153.3188,102.6649 -47.98025,-5.7905 -10.2431,-24.3829 -94.71645,-22.8206 73.93965,85.8464 185.40835,84.3068 217.10005,120.0572 -45.8456,-5.2494 -64.5988,10.2364 -115.4323,15.2876 98.0497,35.976 115.4174,14.1655 210.0656,76.7425 28.4322,2.1183 54.7053,8.8927 79.9274,17.337 -39.9974,-4.8669 -79.8878,-8.2238 -119.2263,4.265 -93.9767,0.2436 -166.9572,82.4645 -261.35659,80.1766 -34.60477,-1.8773 -65.68165,-20.793 -89.14968,-45.4749 -75.63518,-4.5566 -161.02584,-13.6575 -226.32246,32.8737 -31.22762,22.6132 -42.79438,61.1573 -49.35224,96.9874 -23.84586,62.2428 20.46001,122.225 38.10817,180.2659 15.53139,40.4356 3.66567,89.0222 -30.71361,115.543 -74.70351,117.4769 -143.34576,243.4862 -166.14148,382.4383 47.09389,-16.9301 41.21153,42.8391 32.73532,74.1667 -5.50837,49.3704 -31.92858,100.5636 -14.20747,149.8848 20.00127,116.2291 31.80869,240.6619 100.53234,340.4806 11.07626,15.1483 26.74544,26.8489 25.70083,47.4413 60.31049,189.1225 153.82318,348.0355 330.48278,447.1613 30.98767,-33.4941 411.49139,280.5186 416.47549,341.7267 22.1561,3.5329 82.049,-53.1456 101.7508,-62.2026 31.3391,-9.8579 17.6904,71.7544 47.7737,70.4003 22.4401,-7.1418 24.9184,-36.6707 45.4472,-47.6628 112.4276,-102.2712 366.645,-267.7775 410.2717,-283.4568 17.0536,27.7561 335.8834,-262.1085 408.1669,-376.4563 2.6842,15.4318 -16.2375,83.3304 6.0927,83.2784 39.859,-11.3636 51.8569,-77.5603 76.8535,-108.5639 38.657,-88.6248 -1.486,-239.0889 14.1243,-345.2718 3.3028,-20.6041 31.4577,4.351 38.025,-15.3983 -57.9055,-79.9071 -84.8194,-128.5843 -104.5203,-229.3136 -4.2932,-25.8581 -1.9726,-52.4037 7.8375,-76.6593 16.6653,-0.1198 27.9846,-15.8998 22.7376,-31.7105 -12.636,-61.52 -61.113,-110.0337 -72.422,-171.736 -0.7211,-18.2819 16.3415,-32.3485 10.4408,-51.8447 -11.2982,-57.4491 -56.9991,-100.3537 -90.5068,-146.2566 -26.4431,-36.3891 -58.7635,-75.1341 -61.4272,-121.802 2.1309,-84.2475 86.8389,-144.7057 77.1025,-231.1967 -13.1301,-52.4561 -53.7535,-94.0817 -90.1745,-132.3814 -23.3479,-22.8648 -47.23,-45.4236 -72.8928,-64.8337 -77.0119,18.0988 -110.8238,103.8864 -184.337,128.2826 -25.22,6.954 -57.0711,2.2006 -71.5358,-21.1311 -53.7967,-48.331 -131.1879,-49.021 -200.6216,-39.1329 27.3975,-41.3051 40.7835,-87.3038 41.2376,-125.9285 l -87.2941,-222.5282 c -13.6141,3.105 -6.6342,18.3645 -22.239,18.9155 -62.9477,-48.0995 -192.8374,-135.71461 -297.1382,-161.10098 z"
         sodipodi:nodetypes="cccccccccccccccccccccccccccccccccccccccccccccccccccc" />
      <path
         id="path3002"
         style="fill:#000000;stroke-width:19.9713"
         d="m 1219.1586,923.74112 c 58.444,58.57222 48.1943,105.05948 35.5049,115.43218 35.8635,11.2149 65.1442,31.1314 93.0824,81.506 -34.8456,-17.1967 -43.0868,-26.9406 -77.961,-30.4643 39.2235,35.4708 72.9855,63.8966 47.4136,109.1177 -53.2084,-41.5067 -81.5469,-61.1993 -194.7779,-92.1131 40.9098,21.0944 62.1452,35.7975 75.1914,52.094 -111.3676,-33.2587 -251.4098,-54.1682 -351.66938,4.4589 63.98279,-18.7119 142.27908,50.5108 152.21097,80.3427 -42.67072,-12.7419 -71.85197,-24.7454 -97.92902,-40.4067 15.63322,77.8883 132.08413,110.5909 211.47803,136.5911 -38.9343,1.8346 -107.3489,17.6949 -123.5192,39.6036 56.673,12.2415 132.4826,26.813 207.3793,71.7297 -33.6384,-0.5313 -65.9047,0.5664 -96.0181,10.5795 -39.1299,13.011 -84.0368,34.6271 -111.3612,53.6172 -12.99768,9.0332 -25.3574,16.423 -27.44557,16.423 -2.08807,0 -20.43321,-10.3657 -40.76681,-23.0421 -43.8656,-27.3467 -65.15879,-36.865 -97.01504,-43.3978 -27.68405,-5.6772 -32.73544,-4.5712 -32.73544,7.1452 0,10.2691 -0.2775,10.2804 -29.5503,2.8249 -15.90181,-4.0499 -33.48679,-5.378 -57.88227,-4.4035 -30.5411,1.2195 -38.13792,2.8796 -58.96239,13.072 -105.46086,51.6157 -137.3911,221.5114 -62.50729,332.5323 8.81405,13.0677 16.0076,24.902 16.0076,26.3101 -78.97318,105.2369 -174.65679,270.4483 -215.6045,541.0189 14.29293,-35.3056 33.39166,-52.2623 46.02886,-61.6487 -30.47,195.1066 -7.08493,380.5542 78.26568,594.8304 2.07362,-3.6808 5.58324,-34.6246 13.18275,-50.4878 35.77618,104.8176 43.87853,135.0795 103.05256,239.4498 70.08184,123.6066 121.9974,174.888 283.54005,335.0801 1.27041,-3.9804 -16.89716,-62.3689 -14.17983,-62.3689 127.40804,99.5552 271.20024,209.3805 432.76004,361.3904 38.1761,-24.3971 64.4348,-47.7307 79.595,-69.3757 22.6588,26.6736 22.9157,43.1327 37.3049,75.9116 167.8549,-144.5905 336.0979,-275.1802 452.2571,-337.1573 -1.4258,9.139 3.6378,19.7716 -7.5052,61.3719 218.8926,-166.8087 303.0766,-252.417 413.1796,-419.3832 -0.4845,24.0714 -22.0342,104.1719 -34.1201,134.043 149.8921,-135.2139 210.4245,-314.0579 175.7239,-532.5999 27.093,7.036 22.0926,5.6393 64.4736,16.2015 -70.3264,-110.4696 -137.7851,-190.936 -149.0537,-339.1236 14.6789,5.2473 26.321,8.8079 71.3973,23.8454 -58.4927,-116.9806 -61.0322,-175.5189 -103.8003,-257.3685 l 50.3493,21.3252 c -26.8892,-73.1768 -96.1611,-191.2331 -155.5343,-267.8925 -19.0483,-25.9247 -34.6187,-49.444 -34.6187,-52.2602 42.7879,-94.5925 103.4495,-187.1582 75.8286,-300.9323 -2.3171,-2.7749 -9.8626,-4.3591 -18.2233,-3.822 -14.1561,0.912 -14.3203,0.7816 -20.7434,-17.8354 -16.7689,-47.1782 -74.0183,-82.3729 -114.1028,-121.2482 -14.0752,-14.6709 -18.6915,-17.4729 -25.4793,-15.3983 -72.4906,25.3718 -139.5636,81.9101 -188.4082,139.5821 -27.1056,-22.1771 -63.2468,-32.1962 -83.8876,-38.939 15.6969,-5.25 11.6693,-2.5811 36.114,-6.4806 -2.7453,-2.479 -36.1096,-10.0624 -74.1391,-16.8384 -34.1508,-6.0452 -66.5892,-9.9544 -99.1753,-10.4964 33.3386,-76.966 22.6937,-136.9868 12.0473,-162.0426 -5.758,18.8891 -15.2022,27.977 -21.6852,33.4277 -13.578,-68.1447 -33.2839,-168.7459 -106.8468,-215.1891 3.6614,19.4961 3.1302,31.0796 0.9971,38.6066 -82.2155,-83.5939 -229.0251,-151.81364 -337.1573,-176.74858 z m 64.8615,44.56105 c 56.1751,24.17822 108.113,73.41103 154.0388,137.80963 -12.1875,-35.2629 -21.6865,-57.7795 -48.3553,-91.7254 77.8577,35.5218 162.6177,96.8791 183.0631,138.4466 2.7888,-14.2457 3.4775,-28.2258 2.0493,-41.6254 35.0411,59.7125 60.4238,164.8517 54.7528,210.3149 -38.2275,-35.962 -59.1235,-46.8386 -116.0692,-85.2725 26.3799,51.5249 33.1183,145.5647 17.3925,213.1396 30.8234,-60.2478 35.8919,-132.1191 36.6125,-140.6622 50.4758,47.2705 100.6047,128.6614 -88.4019,221.3927 -33.5243,-27.8117 -164.0511,-99.4497 -236.8465,-91.4761 -38.557,-43.7208 -99.3108,-60.1375 -166.2075,-68.937 58.5574,-12.4693 68.6593,-9.3265 113.5041,-11.6274 -80.654,-50.0859 -132.074,-40.34 -213.61928,-99.6856 110.31828,41.6354 229.46538,50.6676 264.46708,75.3142 -11.292,-28.5507 -36.7873,-32.1819 -62.3411,-54.5589 118.8863,41.8528 210.229,124.2084 267.2831,190.9561 7.6887,-81.7913 -45.3427,-176.5884 -109.8655,-253.6572 l 4.0711,-20.7712 c 50.3785,10.7479 90.2553,39.3102 135.5109,121.4697 -19.8783,-116.8502 -112.8361,-186.5067 -113.4104,-190.2914 -8.6122,-56.7632 -44.157,-112.7143 -77.6286,-158.55313 z m -271.9637,178.85343 c 118.1692,4.5023 256.1525,39.5422 153.6789,73.059 80.454,18.8824 194.244,52.7051 253.6572,188.4913 -110.8883,-90.0763 -198.8459,-154.2405 -293.1778,-158.5532 -4.4806,1.4878 26.1924,24.3083 26.3378,32.8184 -46.3627,-10.6635 -83.2025,-19.5145 -114.4352,-27.7224 -10.8355,-38.2093 -49.63813,-83.4256 -97.33571,-104.4247 30.52291,-6.3779 39.82191,-4.4633 71.27481,-3.6684 z m 1069.4371,325.0268 c 18.2993,-0.4148 23.0673,5.2183 33.2616,24.2331 10.2877,19.1892 29.2458,68.6142 29.2458,76.2717 0,1.6424 -9.6438,2.991 -21.4081,2.991 -30.3101,0 -31.1297,1.6935 -24.2885,50.46 6.9207,49.3297 7.2776,118.6583 0.7201,143.0994 -2.6694,9.9495 -8.236,24.6093 -12.3519,32.5691 l -7.4776,14.4567 31.6552,32.5692 c 46.3793,47.99 120.0114,121.7977 157.5838,179.2688 -25.5527,-6.8916 -31.4361,-9.9725 -65.6092,-15.7306 69.549,70.5474 109.2347,161.9344 153.1249,268.8893 -26.8424,-4.5512 -39.8856,-10.9341 -60.5409,-15.8138 15.3706,116.5707 37.7472,231.4221 103.4679,319.5435 12.2084,16.3681 12.9064,18.2013 23.513,36.3078 -21.2712,-8.0296 -30.3552,-10.2019 -55.9159,-12.9888 54.0027,101.0153 36.3374,311.9236 -20.1896,425.4207 -0.8024,-38.5107 0.4047,-105.6354 -20.5496,-155.5897 -28.9425,177.8128 -250.2306,376.6156 -386.7863,480.2289 4.6511,-22.6076 3.6028,-16.4538 5.0957,-47.5798 -122.4031,70.7849 -387.5569,290.4602 -486.5709,357.2084 -15.0982,-33.6837 -27.6703,-70.9612 -61.6765,-88.7898 -17.3638,52.191 -35.2498,76.5036 -57.4114,85.8541 -165.9323,-122.0948 -410.76852,-285.2821 -501.36014,-417.0569 8.88032,32.8089 10.33669,45.3958 16.09064,70.8712 -144.60296,-117.4935 -286.13201,-413.7966 -313.31194,-592.6423 -20.32913,29.1551 -21.18633,42.2615 -32.37529,61.5379 -36.7913,-115.0816 -52.64672,-214.1721 -24.84229,-337.7665 14.7469,57.2898 36.00304,88.7113 65.99685,113.3827 -1.34486,-14.5663 -3.20538,-26.9967 7.31146,-46.4166 26.90715,71.467 131.53463,225.7516 190.76225,283.3184 4.13391,-20.5964 0.97412,-30.0864 9.55467,-48.2998 58.1793,87.2243 206.84488,238.683 317.63239,327.0487 -80.05867,-7.0904 -108.97239,-30.704 -165.44912,-69.708 36.52459,60.9365 71.9554,76.7942 135.48332,143.9578 -94.5575,-51.8614 -173.09596,-81.8918 -287.14033,-207.1021 60.23437,116.4828 82.47856,145.0453 130.94121,207.7114 -38.08342,-6.7584 -51.5591,-13.7399 -78.23794,-24.039 118.52156,136.0066 424.01366,310.3287 537.47416,442.8684 67.0335,-131.7269 2.753,-225.0759 90.8115,-341.9762 -1.0577,53.3855 9.6495,85.3446 53.2296,132.2153 25.8408,-60.4711 89.8012,-21.7753 23.5682,103.1634 134.6774,-40.8353 222.785,-201.0602 223.3868,-341.3669 -18.066,25.4355 -36.569,65.9559 -73.2529,41.6808 -38.4901,-26.516 112.6732,-180.5244 153.845,-223.1651 111.1098,-115.073 134.7279,-146.4654 183.4508,-260.498 1.425,0 4.4853,6.3174 6.8129,14.0413 4.7934,15.9064 12.5467,23.8956 20.3003,20.9374 7.9082,-3.0166 41.0383,-51.4448 54.8636,-80.2043 28.0731,-58.3993 38.1831,-109.8352 38.2188,-194.2518 0.011,-31.2235 1.3969,-57.637 3.1018,-58.6854 1.705,-1.0474 12.277,0.7075 23.4854,3.8773 31.5384,8.9195 33.0187,7.3232 30.1319,-32.2923 -11.9631,-164.1597 -67.9776,-289.2303 -163.4828,-364.9629 -30.1571,-23.9135 -30.7774,-20.2579 -6.3698,37.0004 16.4444,38.5776 50.8073,127.9415 56.5806,147.1151 2.3105,7.6712 1.4254,8.1423 -15.5367,8.1423 -10.6087,0 -19.6576,1.9864 -22.0452,4.8467 -2.2279,2.6685 -5.7539,29.1291 -7.8377,58.7961 -5.9005,84.0187 -16.3044,137.5217 -32.6798,167.9417 -5.0632,9.4054 -7.7415,7.0846 -15.8139,-13.6814 -3.3025,-8.4951 -10.1168,-21.8903 -15.1213,-29.772 -11.5675,-18.217 -11.4222,-23.1035 1.1632,-39.2712 24.5561,-31.5455 38.2232,-65.9974 36.3633,-91.67 -1.1008,-15.1941 -1.4633,-15.5923 -13.8752,-15.5923 -20.8277,0 -21.9302,-2.6464 -12.2688,-29.1072 18.7319,-51.3058 25.0823,-131.6912 14.069,-178.1333 -6.1873,-26.0898 -17.9425,-50.8805 -25.4793,-53.7558 -2.8429,-1.0846 -14.649,3.3163 -26.227,9.7763 -49.7713,27.7701 -53.1423,29.0682 -72.0067,27.9718 -17.8672,-1.0385 -18.346,-1.3739 -27.2794,-19.1371 -7.885,-15.6781 -9.1116,-22.926 -9.1116,-54.282 0,-40.635 5.8499,-58.7054 18.3617,-56.8022 38.6001,5.8768 59.5165,4.8562 94.5226,-4.625 24.2664,-6.5725 44.9932,-9.7807 62.6734,-9.7209 20.8358,0.082 26.4209,-1.0215 26.4209,-5.2066 0,-10.4214 -12.5395,-24.0019 -37.9143,-41.0715 -35.3854,-23.8038 -40.8186,-30.2417 -35.4494,-41.9577 6.8857,-15.0242 5.1731,-23.1195 -5.7882,-27.3349 -28.2557,-10.866 -40.2068,-18.8982 -48.4936,-32.6244 -29.2183,-48.3974 -55.0987,-58.3257 -187.1342,-71.6744 -103.7934,-10.4932 -133.4508,-6.1048 -159.6056,-34.3139 -15.5181,-16.7374 -33.3708,-21.5745 -37.4711,-43.3424 58.4952,-31.9886 182.2246,-82.36 188.242,-54.2266 46.6463,7.921 47.043,8.2016 47.1089,33.2061 0.085,31.4563 -0.1796,31.2874 45.1149,25.784 31.3821,-3.8166 45.7378,-3.8483 75.1917,-0.194 l 36.4187,4.5144 33.206,-31.0737 c 41.8892,-39.2029 77.9084,-58.1452 120.6666,-63.4213 9.8082,-1.2102 17.4132,-2.0217 23.5129,-2.1602 z m -823.8113,28.2765 c 72.8649,0.9107 144.7478,20.9574 204.4711,61.3996 -19.5344,41.634 -58.1824,41.4876 -52.1493,52.7033 3.4786,6.4671 7.5232,11.8366 8.9731,11.9364 1.4495,0.1019 15.0433,0.7338 30.215,1.3848 45.0342,1.9358 71.9469,17.0585 106.9023,60.0702 20.9213,25.7428 24.7201,34.266 13.8197,31.0736 -35.0407,-10.2621 -145.7222,-13.9426 -202.0617,-6.7021 -18.7859,2.4127 -25.5726,2.0702 -28.5257,-1.4679 -7.0189,-8.4078 0.4763,-26.6509 17.3924,-42.3177 21.4511,-19.8666 24.533,-25.7475 17.3092,-32.9292 -3.9664,-3.9436 -12.5787,-5.6419 -28.1933,-5.6221 -31.3494,0.049 -53.6676,11.2968 -89.039,44.8934 -15.8792,15.0824 -30.1586,27.4179 -31.7383,27.4179 -1.5794,0 -11.7167,-4.3018 -22.516,-9.5548 -17.7122,-8.6148 -22.4622,-9.3598 -48.4383,-7.5883 l -28.7749,1.9663 -7.2007,-12.1026 c -15.9079,-26.8048 -55.283,-45.0873 -97.1813,-45.0874 -34.00518,10e-5 -34.08474,0.073 -31.6552,28.8859 1.73323,20.5528 0.76716,27.3375 -5.67747,40.573 -8.26973,16.9834 -30.37263,40.7529 -34.28632,36.8618 -1.29905,-1.2915 -0.876,-5.1295 0.96935,-8.5578 1.84547,-3.4281 4.4425,-16.7055 5.76053,-29.495 1.92004,-18.6307 1.28908,-24.1744 -3.21261,-27.8887 -4.60172,-3.7979 -7.60185,-3.6235 -16.58921,0.997 -16.83478,8.6549 -16.56874,1.2999 0.80323,-21.9897 60.02572,-79.0063 151.4792,-127.8363 247.8413,-143.4317 24.0905,-3.8988 48.4938,-5.7316 72.7821,-5.4282 z m -497.70444,58.9901 c 22.73587,0.3764 48.09243,2.6416 62.97822,6.5914 34.51905,9.1594 77.05834,25.288 78.87495,29.9104 1.74235,4.4335 -63.70349,138.9174 -67.60318,138.9174 -1.34466,0 -1.7921,-20.763 -0.99703,-46.1396 1.64603,-52.5165 -1.30817,-60.1565 -24.89767,-64.2798 -12.43111,-2.1726 -12.96893,-1.7892 -18.52791,13.3766 -3.14929,8.5921 -8.22613,16.1326 -11.29946,16.7277 -3.07333,0.5964 -12.30531,-5.9284 -20.49421,-14.4844 -13.66651,-14.2802 -16.27182,-15.487 -31.7106,-14.8997 -22.73322,0.866 -41.93344,13.8792 -52.06635,35.3109 -7.397,15.6449 -12.14355,40.6564 -17.08775,89.759 -1.15179,11.4417 -3.40094,20.7989 -4.98508,20.7989 -4.74804,0 -21.4418,-40.2839 -27.55634,-66.4954 -3.4205,-14.664 -5.28306,-36.2139 -4.65278,-53.728 l 1.0524,-29.2458 19.99571,-6.8683 c 11.00852,-3.7814 29.83765,-8.0106 41.84692,-9.3886 l 21.85128,-2.4926 1.0801,-16.9216 c 0.64666,-9.957 3.51568,-18.85 6.95138,-21.685 4.39645,-3.6273 24.51163,-5.1399 47.2474,-4.7635 z m 1018.34014,151.4355 c 28.759,2.5995 79.5793,33.7491 76.7148,54.5865 l -8.807,-0.7477 c -10.6862,-16.0248 -138.8781,-28.6675 -158.1654,-5.2344 -8.8122,3.2094 -12.6565,-0.088 -12.6565,-3.1848 0,-4.5533 25.8721,-25.2657 41.8469,-33.5108 12.9431,-6.6802 25.7861,-9.8854 44.5057,-11.1056 7.1965,-0.4694 12.537,-0.8631 16.5615,-0.8032 z m -648.1705,13.5704 c 39.8664,0.2208 77.1718,18.6224 82.0875,55.0574 1.0843,8.0342 0.8458,14.623 -0.4984,14.623 -1.3441,0 -8.8369,-3.2541 -16.6724,-7.2284 -32.4582,-16.4745 -99.1076,-16.5658 -142.4346,-0.1939 -28.0256,10.5899 -27.9839,10.6118 -20.0789,-8.1977 15.2659,-36.3235 57.7303,-54.282 97.5968,-54.0604 z m 596.4643,27.418 c 5.7431,-0.4905 12.9727,3.905 14.4844,9.2224 1.6143,5.6791 -3.5259,13.2655 -9.1117,15.1767 -4.985,1.706 -12.605,-0.8852 -14.7337,-5.7051 -2.6197,-5.9316 0.9452,-15.8645 7.0069,-18.1678 0.7382,-0.2806 1.5335,-0.4561 2.3541,-0.5262 z m -294.4796,20.4941 c 141.8775,2.6534 355.3047,38.5426 337.9881,318.1309 -3.3098,53.4394 11.6885,80.505 15.703,134.514 12.7204,91.4908 -31.0109,176.2673 -48.4383,263.9321 -32.9891,119.1575 -43.5242,247.8505 -108.3146,355.7404 -55.2884,96.901 -185.271,130.5967 -285.7278,89.7314 -104.5954,-41.6603 -150.1656,-155.105 -180.1828,-255.2636 -28.7837,-109.0047 -69.5526,-214.6091 -94.4672,-324.6391 -20.1703,-118.4355 -12.2228,-244.2135 33.2615,-356.2114 49.3906,-127.9127 189.0947,-228.5731 330.1781,-225.9347 z m 409.6902,5.7607 c 8.6188,2.1506 11.8811,6.403 11.8811,12.7119 -5.5465,33.9419 -61.0279,64.9181 -97.486,64.7783 -11.6933,-15.7698 -42.8945,-43.0526 -74.6377,-65.1937 -7.9938,-9.3147 0.7349,-6.5693 16.4508,-4.2927 50.0894,16.1713 69.5135,47.5297 143.7918,-8.0038 z m -342.6133,2.5756 c -2.7079,-0.032 -5.379,-10e-5 -8.0037,0.1107 -83.9909,3.5895 -212.372,68.1865 -211.3118,112.4966 1.06,44.31 39.8631,75.1365 64.0028,74.5269 24.1396,-0.6092 24.5283,-76.5456 66.3846,-37.5267 41.8563,39.0191 -39.1233,60.0961 -42.29,69.0157 6.4907,21.2292 64.3858,34.2094 90.8114,41.0714 -15.2882,27.8194 64.628,75.2787 -83.7493,55.8883 -140.7858,-18.3985 -273.5111,-16.7729 -202.6986,290.8238 45.9196,199.4671 40.4583,302.9777 89.8698,376.7055 35.8063,-3.655 58.6601,-20.9461 180.3212,-15.5646 72.1366,3.1908 116.5138,16.2214 173.536,21.2143 26.0654,-33.2661 42.6933,-94.2558 48.383,-204.3326 4.7446,-91.7943 8.2252,-160.4477 28.3595,-228.1504 33.7715,-113.5584 72.3964,-183.3518 -73.613,-213.472 -152.598,-36.8243 -95.9937,-17.6724 -85.1062,-75.8562 h 0.055 c 24.6505,-3.7786 76.5951,-10.3577 79.0411,-34.9786 2.4461,-24.6209 -57.5334,-36.1101 -21.1588,-70.428 36.3745,-34.3181 51.2497,24.2361 57.4114,39.6867 6.1617,15.4506 61.6586,-26.0659 58.3808,-79.5119 -3.1754,-51.776 -124.6744,-120.7232 -208.6255,-121.7189 z m -414.4258,6.9237 c 1.6122,0.087 3.069,0.615 4.182,1.7171 6.8699,6.8022 -0.5599,21.9962 -8.3085,27.7779 -2.2479,1.678 -6.3803,1.9529 -8.4193,0.028 -5.397,-5.098 -5.4569,-16.1436 -1.2185,-22.239 2.6823,-3.8575 8.9277,-7.5441 13.7643,-7.2838 z m 118.6171,25.23 c 2.8979,0.2346 5.5412,1.6798 4.5419,5.1512 -49.2819,21.325 -105.2064,80.9276 -108.5361,81.0074 -30.1564,4.5571 -72.5787,-40.2146 -71.1205,-78.3486 8.3722,-1.7542 11.2811,-2.9638 17.0878,-2.2988 0.1598,38.0372 142.7281,16.0989 152.3771,-4.2372 0.5596,-0.5101 1.598,-0.9213 2.7971,-1.1355 0.8995,-0.1607 1.8867,-0.2167 2.8527,-0.1385 z m 218.734,2.2432 c 2.8095,-0.1359 5.3025,0 7.3945,0.4432 36.5322,1.1789 -102.6286,34.4499 -105.8497,86.768 -58.3465,-21.7718 56.3139,-85.1717 98.4552,-87.2112 z m -494.54721,17.4755 c 5.68935,-0.022 5.64862,1.0058 -0.91387,25.3131 -7.23101,26.7838 -7.02818,57.6354 0.44309,68.2402 6.13011,8.701 14.2561,9.0849 47.77366,2.1325 15.17719,-3.1481 15.45279,2.3424 0.91387,18.8048 -21.22806,24.0365 -35.99154,61.073 -46.77662,117.2877 -3.55228,18.515 -8.13405,34.2225 -10.16399,34.8956 -9.52263,3.1556 -23.22118,-15.1477 -36.14175,-48.2999 -14.93193,-38.313 -26.13815,-54.4516 -35.36641,-50.9309 -3.37131,1.2861 -9.41931,13.482 -14.17973,28.6365 -10.8954,34.6827 -11.58407,102.3294 -1.4955,145.7858 13.18215,56.7817 37.65348,115.7627 67.15997,161.8765 14.52756,22.7048 20.99415,25.7777 24.56531,11.6318 3.19745,-12.665 5.3674,-9.2347 12.9612,20.4941 3.60319,14.1059 15.41141,46.2306 26.22715,71.3974 19.2971,44.9024 21.17873,50.1018 25.6731,70.1788 1.225,5.4721 0.8062,9.9425 -0.94166,9.9425 -1.7483,0 -25.17464,-21.5737 -52.06638,-47.9398 -56.35993,-55.2581 -78.97519,-86.7846 -97.79048,-136.3418 -12.61092,-33.215 -13.60923,-34.6295 -25.64552,-36.6126 -6.88348,-1.1338 -17.42511,-4.4111 -23.42984,-7.2838 -16.6379,-7.9599 -19.90504,-29.7844 -17.61394,-117.3431 2.03577,-77.7827 -0.42781,-100.4819 -11.10554,-102.5264 -9.11805,-1.7457 -24.99059,14.4142 -34.97859,35.6156 -4.61382,9.7932 -10.01368,16.8066 -11.99195,15.5922 -4.96388,-3.0499 -0.52499,-69.285 6.61914,-98.8153 13.68401,-56.5624 48.47452,-104.12 102.16635,-139.6375 28.87648,-19.1018 96.00379,-52.0538 106.09893,-52.094 z m -241.33298,31.1844 c 0.63866,-0.067 1.05388,0.1742 1.24627,0.7478 0.73726,2.1991 -2.01122,24.8059 -6.12061,50.2385 -26.685,165.1527 -15.76306,265.3022 35.33864,324.0022 12.03045,13.8188 15.03037,20.8645 20.46651,48.0782 12.63129,63.2325 35.07555,110.5646 65.80301,138.7236 15.95602,14.6218 23.62376,16.4341 23.62376,5.5667 0,-10.5265 7.39224,-4.7613 16.31223,12.7396 11.38443,22.3345 11.55968,26.8548 0.94167,24.2052 -10.69481,-2.6685 -15.86511,0.7651 -20.96509,13.986 l -4.15428,10.7734 -22.51586,-23.5407 c -26.65115,-27.8933 -46.7152,-64.499 -72.11738,-131.4953 -9.91862,-26.1583 -19.49122,-49.0305 -21.26964,-50.82 -1.90731,-1.9181 -7.14667,-0.6979 -12.76735,2.9633 -7.13173,4.6458 -10.75964,5.1928 -14.40134,2.188 -5.56355,-4.5907 -14.25535,-49.5017 -20.32801,-104.9913 -7.32167,-66.9029 -19.95537,-114.5407 -29.55045,-111.361 -14.38679,4.7678 -15.00139,76.3979 -1.35703,158.3869 9.75482,58.6185 10.13918,71.4831 3.57264,119.3925 -2.06854,15.091 -0.93247,18.274 15.67529,43.4256 9.85449,14.9243 32.19314,44.2166 49.62916,65.1106 31.97496,38.3154 53.22954,67.453 53.22954,72.9759 0,5.3707 -5.07473,3.0294 -30.93517,-14.2628 -53.35179,-35.6749 -107.49409,-99.046 -134.76319,-157.7222 -23.70232,-51.0026 -29.03037,-76.9587 -28.69186,-139.7759 0.21431,-39.8632 1.96314,-61.8222 6.09287,-75.9671 3.3666,-11.5311 4.46406,-21.2893 2.60329,-23.1806 -1.90072,-1.9342 -10.91549,-0.064 -22.12816,4.5697 -10.41605,4.3034 -19.6389,7.1372 -20.46651,6.3144 -4.4318,-4.4058 44.14541,-107.3665 72.25586,-153.1525 28.89328,-47.0616 86.16109,-117.1095 95.74119,-118.1187 z m 672.84669,270.6065 c 32.8642,0.4577 63.6166,5.8713 105.6005,7.4499 63.1934,3.4792 151.4754,10.7912 209.7608,37.6097 25.9008,27.8791 -3.0466,77.5566 -32.1814,175.89 -12.707,-88.3542 -8.6586,-103.9831 -27.5009,-141.9084 -63.9478,-12.1684 -97.7344,-11.3163 -162.2642,-14.3737 -31.365,-2.3334 -86.6812,-8.6387 -120.9988,2.5756 -13.8792,17.1979 -27.3227,55.077 -56.6084,132.3538 -6.0096,-72.0694 -14.0499,-112.3535 -13.6259,-139.9698 0.3532,-24.2651 21.6775,-53.6111 63.7537,-58.1039 11.917,-1.2726 23.1099,-1.6758 34.0646,-1.5232 z m 123.9622,168.0524 c 26.3058,-1.4275 40.9184,18.1745 43.4255,20.4111 62.3504,92.6387 66.4595,307.468 -13.6535,322.479 -152.5111,28.5766 -229.1489,-5.3625 -220.5896,-84.2755 8.2038,-75.6353 97.8061,-159.3711 87.6542,-243.5486 22.5127,-7.085 10.6555,-19.4536 66.6892,-11.4656 17.6344,35.1757 22.7489,109.4221 1.5787,243.6871 25.6287,-102.2524 41.2799,-173.5267 22.9036,-245.2657 4.2339,-1.1737 8.234,-1.8178 11.9919,-2.0218 z m 410.3271,109.5886 c 0.8412,-0.016 1.501,0.2021 1.9663,0.6646 1.0146,1.0088 -0.6858,10.509 -3.7666,21.1036 -3.0804,10.5943 -9.7886,43.6817 -14.8998,73.5298 -5.1115,29.8485 -11.6809,63.1796 -14.6229,74.0837 -2.943,10.9046 -4.1829,20.9776 -2.7417,22.3776 1.4415,1.3994 9.1646,3.0522 17.1708,3.6832 8.0061,0.6308 14.1731,2.7745 13.6812,4.7636 -3.7032,14.9956 -25.1699,71.012 -27.4455,71.619 -1.5674,0.4191 -4.8809,-3.2962 -7.3668,-8.2531 -9.1585,-18.2634 -15.2967,-13.3124 -27.8057,22.4052 -23.0303,65.7604 -60.1278,128.1753 -112.3027,188.9619 -14.6336,17.0495 -28.2646,30.9907 -30.2981,30.9907 -2.0337,0 4.7844,-15.8535 15.1767,-35.2556 75.5672,-141.0773 99.918,-193.8432 117.814,-255.2358 11.7855,-40.4324 23.9837,-103.4397 23.9837,-123.9347 v -16.1182 h -16.6722 c -9.1737,0 -16.1486,-1.322 -15.4816,-2.9359 0.6675,-1.6143 16.0619,-16.8499 34.2032,-33.8707 28.1881,-26.4474 43.519,-38.4647 49.4077,-38.5789 z m -660.0516,137.3389 c 10.1397,33.8308 17.4951,68.1777 61.0948,118.1462 18.3684,21.0516 171.686,4.1215 266.9784,18.5278 13.6614,-28.0484 31.0758,-16.1304 67.3817,-126.0391 -7.2548,93.7736 -12.2217,118.6351 -32.9569,167.3599 -55.2999,-9.0173 -198.79,-25.8294 -323.0053,-9.4716 -20.0887,-28.0284 -51.4904,-126.0459 -39.4927,-168.5232 z m -288.91291,211.0348 c 3.02983,-1.3663 13.37872,5.9167 31.37825,21.7127 41.14306,36.1061 65.55456,49.0199 92.69466,49.0199 h 20.7158 l 5.9822,15.3706 c 3.2945,8.456 13.8198,31.3469 23.3744,50.8756 9.5547,19.5278 17.3647,37.8535 17.3647,40.7114 0,7.3914 -1.9338,6.8012 -36.391,-11.161 -54.2053,-28.2535 -109.52114,-81.1433 -142.57323,-136.3141 -11.27877,-18.8268 -15.57562,-28.8488 -12.54578,-30.2151 z"
         sodipodi:nodetypes="cccccccccccccsssssssccscccccccccccccccccccccccccccccccccccccccccccccccccccccccccccccccccccccssscsccccccccccccccccccccccccccccccccccccccccsscccscsscsscsscssscsssssscscssssssscccccccscccsccssccsscssccccsssssscscscssssccscccscscscsccccsccccssscccscsccsssssssscccccccsccccccccscsccsscscsscccssssccscccsssscccccsssccscssssscsscssssssssssscsscssccccsscscscccccssssssscssccsccsccsccccccccssccsscccccssssccscccsssccscsssscscccccssscccscss" />
    </g>
  </g>
</svg>
